<svg width="800" height="446" viewBox="0 0 800 446" fill="none" xmlns="http://www.w3.org/2000/svg">
<ellipse cx="166" cy="359" rx="72" ry="67" fill="white"/>
<ellipse cx="626" cy="359" rx="82" ry="67" fill="white"/>
<path d="M462.5 58H206.5L160 101.5L144.5 163.5H538L462.5 58Z" fill="white" stroke="black"/>
<path d="M165.518 314.955C141.525 314.955 122.008 334.472 122.008 358.464C122.008 382.456 141.525 401.974 165.518 401.974C189.51 401.974 209.027 382.455 209.027 358.464C209.027 334.474 189.51 314.955 165.518 314.955ZM165.518 375.909C155.898 375.909 148.073 368.082 148.073 358.464C148.073 348.846 155.898 341.02 165.518 341.02C175.137 341.02 182.962 348.845 182.962 358.464C182.962 368.084 175.137 375.909 165.518 375.909Z" fill="black"/>
<path d="M620.372 314.955C596.38 314.955 576.861 334.472 576.861 358.464C576.861 382.456 596.38 401.974 620.372 401.974C644.363 401.974 663.88 382.455 663.88 358.464C663.88 334.474 644.363 314.955 620.372 314.955ZM620.372 375.909C610.753 375.909 602.926 368.082 602.926 358.464C602.926 348.846 610.753 341.02 620.372 341.02C629.99 341.02 637.815 348.845 637.815 358.464C637.815 368.084 629.99 375.909 620.372 375.909Z" fill="black"/>
<path d="M711.106 164.317L594.825 151.032L532.766 50.1495C513.816 19.3439 479.575 0.206848 443.407 0.206848H232.286C171.598 0.206848 117.961 41.0736 101.851 99.59L100.203 105.576C92.1978 134.653 69.1944 157.797 40.1682 165.982C16.5184 172.651 0 194.469 0 219.042V363.29C0 370.487 5.83513 376.322 13.0326 376.322H80.0323C88.2985 415.938 123.485 445.791 165.517 445.791C207.55 445.791 242.737 415.938 251.003 376.322H534.887C543.154 415.938 578.34 445.791 620.373 445.791C662.405 445.791 697.592 415.938 705.858 376.322H776.194C782.82 376.322 788.392 371.351 789.143 364.767L799.35 275.306C805.613 220.39 766.028 170.6 711.106 164.317ZM26.0652 334.422H81.5823C80.1175 339.527 79.0975 344.818 78.5866 350.257H26.0652V334.422ZM165.517 419.726C131.737 419.726 104.256 392.245 104.256 358.464C104.256 324.684 131.737 297.201 165.517 297.201C199.298 297.201 226.779 324.684 226.779 358.464C226.779 392.245 199.298 419.726 165.517 419.726ZM620.373 419.726C586.592 419.726 559.111 392.245 559.111 358.464C559.111 324.684 586.592 297.201 620.373 297.201C654.153 297.201 681.635 324.684 681.635 358.464C681.635 392.245 654.153 419.726 620.373 419.726ZM620.373 271.135C590.855 271.135 564.73 285.871 548.916 308.357H316.996C309.799 308.357 303.964 314.192 303.964 321.389C303.964 328.587 309.799 334.422 316.996 334.422H536.437C534.973 339.527 533.953 344.818 533.442 350.257H252.448C248.297 305.939 210.902 271.135 165.517 271.135C136 271.135 109.875 285.871 94.0606 308.357H26.0652V219.042C26.0652 206.087 34.7745 194.584 47.2423 191.068C84.9986 180.423 114.92 150.316 125.334 112.494L126.981 106.508C139.986 59.2671 183.29 26.272 232.286 26.272H443.407C470.59 26.272 496.323 40.6548 510.563 63.8059L575.945 170.089C578.043 173.499 581.591 175.754 585.567 176.209L708.145 190.213C735.951 193.395 758.438 211.648 768.39 235.873H727.706C720.508 235.873 714.673 241.708 714.673 248.905C714.673 256.103 720.508 261.938 727.706 261.938H773.89C773.98 265.37 773.85 268.845 773.45 272.352L769.342 308.357H691.828C676.015 285.871 649.889 271.135 620.373 271.135ZM707.302 350.257C706.793 344.818 705.771 339.527 704.306 334.422H766.369L764.562 350.257H707.302Z" fill="black"/>
<path d="M444.09 196.987H416.704C409.507 196.987 403.672 202.822 403.672 210.02C403.672 217.217 409.507 223.052 416.704 223.052H444.09C451.288 223.052 457.123 217.217 457.123 210.02C457.123 202.822 451.29 196.987 444.09 196.987Z" fill="black"/>
<path d="M269.073 210.02C269.073 202.822 263.237 196.987 256.04 196.987H228.654C221.457 196.987 215.622 202.822 215.622 210.02C215.622 217.217 221.457 223.052 228.654 223.052H256.04C263.237 223.052 269.073 217.217 269.073 210.02Z" fill="black"/>
<path d="M285.216 316.399C282.932 310.989 277.121 307.59 271.271 308.499C265.973 309.323 261.675 313.309 260.475 318.536C257.875 329.848 270.989 338.63 280.527 332.14C285.575 328.707 287.544 322.037 285.216 316.399C285.546 317.198 284.885 315.617 285.216 316.399Z" fill="black"/>
<path d="M497.001 72.1676C485.652 53.6839 465.118 42.2014 443.409 42.2014H232.281C190.426 42.2014 153.441 70.3813 142.337 110.741L140.698 116.715C136.41 132.277 129.807 159.01 129.527 160.141C128.566 164.03 129.449 168.145 131.918 171.301C134.389 174.454 138.172 176.298 142.179 176.298H537.744C542.466 176.298 546.818 173.745 549.121 169.624C551.425 165.502 551.319 160.457 548.845 156.436L497.001 72.1676ZM346.41 68.2648V150.229H226.416V68.5272C228.354 68.3569 230.309 68.2648 232.281 68.2648H346.41ZM165.83 123.622L167.471 117.643C172.441 99.5795 184.613 84.9066 200.351 76.378V150.228H158.88C161.078 141.553 163.763 131.131 165.83 123.622ZM372.475 150.229V68.2648H443.409C456.122 68.2648 468.145 74.9861 474.795 85.8154L514.426 150.229H372.475Z" fill="black"/>
</svg>
