<svg width="835" height="852" viewBox="0 0 835 852" fill="none" xmlns="http://www.w3.org/2000/svg">
<rect width="835" height="852" rx="50.1" fill="black"/>
<path d="M86.132 72.4607C104.032 60.5699 143.362 42.4536 178.562 53.3607C224.148 67.486 246.577 154.504 246.577 154.504C246.577 154.504 375.117 308.648 398.302 300.359C421.488 292.07 433.101 293.867 449.749 315.986C466.398 338.105 759.304 264.329 757.996 319.459C756.688 374.588 340.751 404.975 340.751 399.332C340.751 393.688 348.163 386.743 340.751 386.743C333.34 386.743 152.871 388.758 127.115 187.061L116.215 184.022C80.595 114.95 68.2316 84.3516 86.132 72.4607Z" stroke="#FAFAFA" stroke-width="25.05"/>
<path d="M118.688 184.648L127.5 187C153.244 389.488 333.592 387 341 387C348.408 387 341 393.335 341 399C341 404.665 468 392 468 392" stroke="#FE0000" stroke-width="26"/>
<path d="M84.9669 471.83C102.9 459.865 142.301 441.637 177.565 452.612C223.234 466.824 245.703 554.382 245.703 554.382C245.703 554.382 374.477 709.482 397.704 701.142C420.932 692.801 432.566 694.61 449.245 716.866C465.923 739.122 759.361 664.889 758.051 720.36C756.741 775.832 340.049 806.407 340.049 800.728C340.049 795.05 347.474 788.062 340.049 788.062C332.623 788.062 151.827 790.089 126.025 587.141L115.105 584.084C79.4198 514.583 67.034 483.795 84.9669 471.83Z" stroke="#00FF01" stroke-width="25.05"/>
<path d="M397.5 185L398.9 175H421.6L428.9 123.3C429.033 122.233 428.9 121.433 428.5 120.9C428.1 120.3 427.367 120 426.3 120H408.9L410.3 110H429.5C434.3 110 437.467 111.2 439 113.6C440.6 116 441.067 119.2 440.4 123.2L433.1 175H453.1L451.7 185H397.5ZM504.995 140.1C512.729 140.1 518.229 141.633 521.495 144.7C524.762 147.767 525.929 153.067 524.995 160.6L524.395 165.4C523.529 172.733 520.462 177.833 515.195 180.7C509.929 183.567 503.029 185 494.495 185H463.095L464.495 175H498.695C503.229 175 506.595 174.233 508.795 172.7C510.995 171.167 512.329 168.933 512.795 166L513.695 159.1C514.029 156.433 513.395 154.267 511.795 152.6C510.195 150.933 506.995 150.1 502.195 150.1H467.995L473.595 110H532.095L530.695 120H483.695L480.895 140.1H504.995ZM572.559 110H583.559L573.059 185H562.059L572.559 110ZM647.763 146.7L642.363 185H605.363C600.163 185 596.096 184.067 593.163 182.2C590.296 180.267 588.863 177.3 588.863 173.3C588.863 169.567 590.163 166.267 592.763 163.4C595.429 160.533 599.463 157.267 604.863 153.6L632.863 134.5H594.763L596.163 125H628.063C632.196 125 635.629 125.567 638.363 126.7C641.096 127.833 643.229 129.4 644.763 131.4C646.296 133.333 647.263 135.633 647.663 138.3C648.129 140.9 648.163 143.7 647.763 146.7ZM606.263 175H632.763L637.363 142.3L607.563 162.7C605.163 164.367 603.363 165.8 602.163 167C601.029 168.2 600.463 169.533 600.463 171C600.463 172.4 601.029 173.433 602.163 174.1C603.296 174.7 604.663 175 606.263 175ZM657.224 200L667.724 125H701.224C709.424 125 715.291 127.3 718.824 131.9C722.358 136.433 723.524 142.767 722.324 150.9L721.124 159.1C719.991 167.433 716.958 173.833 712.024 178.3C707.158 182.767 700.758 185 692.824 185H670.324L668.224 200H657.224ZM698.824 135H677.324L671.724 175H693.224C698.424 175 702.224 173.933 704.624 171.8C707.091 169.667 708.691 165.9 709.424 160.5L711.024 149.4C711.691 144.133 711.124 140.433 709.324 138.3C707.524 136.1 704.024 135 698.824 135ZM764.555 161.1L750.255 158C745.255 156.933 741.355 155.2 738.555 152.8C735.821 150.333 734.455 147.067 734.455 143C734.455 140.533 734.921 138.233 735.855 136.1C736.788 133.9 738.221 132 740.155 130.4C742.155 128.733 744.655 127.433 747.655 126.5C750.721 125.5 754.321 125 758.455 125H789.155L787.855 134.5H755.355C752.088 134.5 749.688 135.2 748.155 136.6C746.688 137.933 745.955 139.533 745.955 141.4C745.955 143.067 746.555 144.433 747.755 145.5C748.955 146.567 750.988 147.4 753.855 148L767.955 151C773.421 152.2 777.688 153.933 780.755 156.2C783.821 158.4 785.355 161.7 785.355 166.1C785.355 168.367 784.921 170.633 784.055 172.9C783.255 175.167 781.855 177.2 779.855 179C777.921 180.8 775.288 182.267 771.955 183.4C768.621 184.467 764.455 185 759.455 185H729.555L730.855 175.5H762.355C767.288 175.5 770.488 174.733 771.955 173.2C773.421 171.667 774.155 170.067 774.155 168.4C774.155 166.467 773.555 165 772.355 164C771.155 162.933 768.555 161.967 764.555 161.1Z" fill="white"/>
<path d="M424.3 555.1C432.033 555.1 437.533 556.633 440.8 559.7C444.067 562.767 445.233 568.067 444.3 575.6L443.7 580.4C442.833 587.733 439.767 592.833 434.5 595.7C429.233 598.567 422.333 600 413.8 600H382.4L383.8 590H418C422.533 590 425.9 589.233 428.1 587.7C430.3 586.167 431.633 583.933 432.1 581L433 574.1C433.333 571.433 432.7 569.267 431.1 567.6C429.5 565.933 426.3 565.1 421.5 565.1H387.3L392.9 525H451.4L450 535H403L400.2 555.1H424.3ZM525.387 568.5C524.72 573.433 523.453 577.933 521.587 582C519.72 586 517.253 589.433 514.187 592.3C511.12 595.1 507.387 597.3 502.987 598.9C498.587 600.433 493.52 601.2 487.787 601.2H484.787C478.853 601.2 473.887 600.367 469.887 598.7C465.953 597.033 462.853 594.767 460.587 591.9C458.387 589.033 456.953 585.6 456.287 581.6C455.687 577.533 455.72 573.167 456.387 568.5L458.087 556.5C458.753 551.5 460.02 547 461.887 543C463.753 538.933 466.22 535.467 469.287 532.6C472.353 529.733 476.087 527.533 480.487 526C484.887 524.467 489.953 523.7 495.687 523.7H498.687C504.553 523.7 509.453 524.5 513.387 526.1C517.387 527.7 520.487 529.933 522.687 532.8C524.953 535.667 526.42 539.133 527.087 543.2C527.753 547.267 527.753 551.7 527.087 556.5L525.387 568.5ZM468.487 571.2C467.553 577.933 468.287 582.967 470.687 586.3C473.153 589.567 477.82 591.2 484.687 591.2H490.687C497.553 591.2 502.687 589.533 506.087 586.2C509.487 582.867 511.62 577.867 512.487 571.2L514.987 553.7C515.987 547.1 515.253 542.133 512.787 538.8C510.387 535.4 505.72 533.7 498.787 533.7H492.787C485.987 533.7 480.887 535.367 477.487 538.7C474.087 541.967 471.92 546.967 470.987 553.7L468.487 571.2ZM571.844 525H582.844L572.344 600H561.344L571.844 525ZM647.048 561.7L641.648 600H604.648C599.448 600 595.381 599.067 592.448 597.2C589.581 595.267 588.148 592.3 588.148 588.3C588.148 584.567 589.448 581.267 592.048 578.4C594.714 575.533 598.748 572.267 604.148 568.6L632.148 549.5H594.048L595.448 540H627.348C631.481 540 634.914 540.567 637.648 541.7C640.381 542.833 642.514 544.4 644.048 546.4C645.581 548.333 646.548 550.633 646.948 553.3C647.414 555.9 647.448 558.7 647.048 561.7ZM605.548 590H632.048L636.648 557.3L606.848 577.7C604.448 579.367 602.648 580.8 601.448 582C600.314 583.2 599.748 584.533 599.748 586C599.748 587.4 600.314 588.433 601.448 589.1C602.581 589.7 603.948 590 605.548 590ZM656.509 615L667.009 540H700.509C708.709 540 714.576 542.3 718.109 546.9C721.643 551.433 722.809 557.767 721.609 565.9L720.409 574.1C719.276 582.433 716.243 588.833 711.309 593.3C706.443 597.767 700.043 600 692.109 600H669.609L667.509 615H656.509ZM698.109 550H676.609L671.009 590H692.509C697.709 590 701.509 588.933 703.909 586.8C706.376 584.667 707.976 580.9 708.709 575.5L710.309 564.4C710.976 559.133 710.409 555.433 708.609 553.3C706.809 551.1 703.309 550 698.109 550ZM763.84 576.1L749.54 573C744.54 571.933 740.64 570.2 737.84 567.8C735.107 565.333 733.74 562.067 733.74 558C733.74 555.533 734.207 553.233 735.14 551.1C736.073 548.9 737.507 547 739.44 545.4C741.44 543.733 743.94 542.433 746.94 541.5C750.007 540.5 753.607 540 757.74 540H788.44L787.14 549.5H754.64C751.373 549.5 748.973 550.2 747.44 551.6C745.973 552.933 745.24 554.533 745.24 556.4C745.24 558.067 745.84 559.433 747.04 560.5C748.24 561.567 750.273 562.4 753.14 563L767.24 566C772.707 567.2 776.973 568.933 780.04 571.2C783.107 573.4 784.64 576.7 784.64 581.1C784.64 583.367 784.207 585.633 783.34 587.9C782.54 590.167 781.14 592.2 779.14 594C777.207 595.8 774.573 597.267 771.24 598.4C767.907 599.467 763.74 600 758.74 600H728.84L730.14 590.5H761.64C766.573 590.5 769.773 589.733 771.24 588.2C772.707 586.667 773.44 585.067 773.44 583.4C773.44 581.467 772.84 580 771.64 579C770.44 577.933 767.84 576.967 763.84 576.1Z" fill="white"/>
</svg>
