<svg width="724" height="378" viewBox="0 0 724 378" fill="none" xmlns="http://www.w3.org/2000/svg">
<path d="M21.1323 36.4609C39.0326 24.57 78.3623 6.45368 113.563 17.3608C159.149 31.4861 181.577 118.504 181.577 118.504C181.577 118.504 310.117 272.648 333.303 264.359C356.488 256.07 368.101 257.867 384.75 279.986C401.398 302.105 694.304 228.329 692.996 283.459C691.688 338.589 275.752 368.975 275.752 363.332C275.752 357.689 283.163 350.743 275.752 350.743C268.34 350.743 87.8712 352.758 62.1155 151.061L51.2157 148.022C15.5953 78.9499 3.23187 48.3517 21.1323 36.4609Z" stroke="#FAFAFA" stroke-width="25.05"/>
<path d="M403 356C403 356 276 368.665 276 363C276 357.335 283.409 351 276 351C268.592 351 88.2441 353.488 62.5001 151L51.0001 147.5C26.9376 104.169 12.9999 72.0001 13 50.5001C13.0001 29.0001 75 14.5001 75 14.5001C127.577 9.73367 150.35 31.7665 181.5 116C242.929 191.882 273.5 228 330 266.5C341.916 259.591 363 254 378.5 273" stroke="#FAB733" stroke-width="26"/>
<path d="M351.2 105.5L382.2 84.0001H341.1L342.5 74.0001H403.1L402 82.0001L367 106.4H375.8C384.067 106.4 389.767 107.933 392.9 111C396.1 114.067 397.267 118.533 396.4 124.4L395.4 131.3C394.4 138.233 391.433 142.933 386.5 145.4C381.633 147.8 374.833 149 366.1 149H333L334.4 139H370.8C375.467 139 378.767 138.3 380.7 136.9C382.7 135.5 383.9 133.433 384.3 130.7L385 125.4C385.4 122.533 384.867 120.267 383.4 118.6C382 116.867 378.8 116 373.8 116H353C351 116 349.533 115.567 348.6 114.7C347.667 113.767 347.2 112.667 347.2 111.4C347.2 110.333 347.533 109.333 348.2 108.4C348.867 107.4 349.867 106.433 351.2 105.5ZM403.398 149L404.798 139H427.498L434.798 87.3001C434.932 86.2335 434.798 85.4335 434.398 84.9001C433.998 84.3001 433.265 84.0001 432.198 84.0001H414.798L416.198 74.0001H435.398C440.198 74.0001 443.365 75.2001 444.898 77.6001C446.498 80.0001 446.965 83.2001 446.298 87.2001L438.998 139H458.998L457.598 149H403.398ZM507.07 74.0001H518.07L507.57 149H496.57L507.07 74.0001ZM582.274 110.7L576.874 149H539.874C534.674 149 530.608 148.067 527.674 146.2C524.808 144.267 523.374 141.3 523.374 137.3C523.374 133.567 524.674 130.267 527.274 127.4C529.941 124.533 533.974 121.267 539.374 117.6L567.374 98.5001H529.274L530.674 89.0001H562.574C566.708 89.0001 570.141 89.5668 572.874 90.7001C575.608 91.8335 577.741 93.4001 579.274 95.4001C580.808 97.3335 581.774 99.6335 582.174 102.3C582.641 104.9 582.674 107.7 582.274 110.7ZM540.774 139H567.274L571.874 106.3L542.074 126.7C539.674 128.367 537.874 129.8 536.674 131C535.541 132.2 534.974 133.533 534.974 135C534.974 136.4 535.541 137.433 536.674 138.1C537.808 138.7 539.174 139 540.774 139ZM591.736 164L602.236 89.0001H635.736C643.936 89.0001 649.803 91.3001 653.336 95.9001C656.869 100.433 658.036 106.767 656.836 114.9L655.636 123.1C654.503 131.433 651.469 137.833 646.536 142.3C641.669 146.767 635.269 149 627.336 149H604.836L602.736 164H591.736ZM633.336 99.0001H611.836L606.236 139H627.736C632.936 139 636.736 137.933 639.136 135.8C641.603 133.667 643.203 129.9 643.936 124.5L645.536 113.4C646.203 108.133 645.636 104.433 643.836 102.3C642.036 100.1 638.536 99.0001 633.336 99.0001ZM699.066 125.1L684.766 122C679.766 120.933 675.866 119.2 673.066 116.8C670.333 114.333 668.966 111.067 668.966 107C668.966 104.533 669.433 102.233 670.366 100.1C671.3 97.9001 672.733 96.0001 674.666 94.4001C676.666 92.7335 679.166 91.4335 682.166 90.5001C685.233 89.5001 688.833 89.0001 692.966 89.0001H723.666L722.366 98.5001H689.866C686.6 98.5001 684.2 99.2001 682.666 100.6C681.2 101.933 680.466 103.533 680.466 105.4C680.466 107.067 681.066 108.433 682.266 109.5C683.466 110.567 685.5 111.4 688.366 112L702.466 115C707.933 116.2 712.2 117.933 715.266 120.2C718.333 122.4 719.866 125.7 719.866 130.1C719.866 132.367 719.433 134.633 718.566 136.9C717.766 139.167 716.366 141.2 714.366 143C712.433 144.8 709.8 146.267 706.466 147.4C703.133 148.467 698.966 149 693.966 149H664.066L665.366 139.5H696.866C701.8 139.5 705 138.733 706.466 137.2C707.933 135.667 708.666 134.067 708.666 132.4C708.666 130.467 708.066 129 706.866 128C705.666 126.933 703.066 125.967 699.066 125.1Z" fill="white"/>
</svg>
