<svg width="725" height="378" viewBox="0 0 725 378" fill="none" xmlns="http://www.w3.org/2000/svg">
<path d="M21.1323 36.4607C39.0326 24.5699 78.3623 6.45356 113.563 17.3607C159.149 31.486 181.577 118.504 181.577 118.504C181.577 118.504 310.117 272.648 333.303 264.359C356.488 256.07 368.101 257.867 384.75 279.986C401.398 302.105 694.304 228.329 692.996 283.459C691.688 338.588 275.752 368.975 275.752 363.332C275.752 357.688 283.163 350.743 275.752 350.743C268.34 350.743 87.8712 352.758 62.1155 151.061L51.2157 148.022C15.5953 78.9498 3.23187 48.3516 21.1323 36.4607Z" stroke="#FAFAFA" stroke-width="25.05"/>
<path d="M403 356C403 356 276 368.665 276 363C276 357.335 283.409 351 276 351C268.592 351 88.2441 353.488 62.5001 151L51.0001 147.5C26.9376 104.169 12.9999 72 13 50.5001C13.0001 29.0001 75 14.5 75 14.5C127.577 9.7336 150.35 31.7664 181.5 116" stroke="#FF8E15" stroke-width="26"/>
<path d="M332.5 149L333.9 139H356.6L363.9 87.3C364.033 86.2333 363.9 85.4333 363.5 84.9C363.1 84.3 362.367 84 361.3 84H343.9L345.3 74H364.5C369.3 74 372.467 75.2 374 77.6C375.6 80 376.067 83.2 375.4 87.2L368.1 139H388.1L386.7 149H332.5ZM441.268 105.1C449.001 105.1 454.501 106.6 457.768 109.6C461.101 112.6 462.268 117.867 461.268 125.4L460.568 130.7C459.501 138.033 456.368 143.133 451.168 146C446.035 148.867 439.201 150.3 430.668 150.3H424.368C412.901 150.3 405.135 147.967 401.068 143.3C397.068 138.567 395.735 131.233 397.068 121.3L399.068 106.8C399.735 101.8 400.968 97.3 402.768 93.3C404.568 89.2333 407.001 85.7667 410.068 82.9C413.135 80.0333 416.868 77.8333 421.268 76.3C425.668 74.7667 430.801 74 436.668 74H466.168L464.768 84H433.768C426.435 84 421.035 85.6667 417.568 89C414.101 92.2667 411.901 97.2667 410.968 104L410.768 105.1H441.268ZM424.268 140.3H433.968C439.368 140.3 443.201 139.533 445.468 138C447.735 136.467 449.068 134.233 449.468 131.3L450.468 124.1C450.801 121.433 450.368 119.267 449.168 117.6C447.968 115.933 445.068 115.1 440.468 115.1H409.368L408.168 124C407.301 130.533 408.068 134.9 410.468 137.1C412.935 139.233 417.535 140.3 424.268 140.3ZM507.461 74H518.461L507.961 149H496.961L507.461 74ZM582.665 110.7L577.265 149H540.265C535.065 149 530.998 148.067 528.065 146.2C525.198 144.267 523.765 141.3 523.765 137.3C523.765 133.567 525.065 130.267 527.665 127.4C530.332 124.533 534.365 121.267 539.765 117.6L567.765 98.5H529.665L531.065 89H562.965C567.098 89 570.532 89.5667 573.265 90.7C575.998 91.8333 578.132 93.4 579.665 95.4C581.198 97.3333 582.165 99.6333 582.565 102.3C583.032 104.9 583.065 107.7 582.665 110.7ZM541.165 139H567.665L572.265 106.3L542.465 126.7C540.065 128.367 538.265 129.8 537.065 131C535.932 132.2 535.365 133.533 535.365 135C535.365 136.4 535.932 137.433 537.065 138.1C538.198 138.7 539.565 139 541.165 139ZM592.127 164L602.627 89H636.127C644.327 89 650.193 91.3 653.727 95.9C657.26 100.433 658.427 106.767 657.227 114.9L656.027 123.1C654.893 131.433 651.86 137.833 646.927 142.3C642.06 146.767 635.66 149 627.727 149H605.227L603.127 164H592.127ZM633.727 99H612.227L606.627 139H628.127C633.327 139 637.127 137.933 639.527 135.8C641.993 133.667 643.593 129.9 644.327 124.5L645.927 113.4C646.593 108.133 646.027 104.433 644.227 102.3C642.427 100.1 638.927 99 633.727 99ZM699.457 125.1L685.157 122C680.157 120.933 676.257 119.2 673.457 116.8C670.724 114.333 669.357 111.067 669.357 107C669.357 104.533 669.824 102.233 670.757 100.1C671.69 97.9 673.124 96 675.057 94.4C677.057 92.7333 679.557 91.4333 682.557 90.5C685.624 89.5 689.224 89 693.357 89H724.057L722.757 98.5H690.257C686.99 98.5 684.59 99.2 683.057 100.6C681.59 101.933 680.857 103.533 680.857 105.4C680.857 107.067 681.457 108.433 682.657 109.5C683.857 110.567 685.89 111.4 688.757 112L702.857 115C708.324 116.2 712.59 117.933 715.657 120.2C718.724 122.4 720.257 125.7 720.257 130.1C720.257 132.367 719.824 134.633 718.957 136.9C718.157 139.167 716.757 141.2 714.757 143C712.824 144.8 710.19 146.267 706.857 147.4C703.524 148.467 699.357 149 694.357 149H664.457L665.757 139.5H697.257C702.19 139.5 705.39 138.733 706.857 137.2C708.324 135.667 709.057 134.067 709.057 132.4C709.057 130.467 708.457 129 707.257 128C706.057 126.933 703.457 125.967 699.457 125.1Z" fill="white"/>
</svg>
