<svg width="720" height="391" viewBox="0 0 720 391" fill="none" xmlns="http://www.w3.org/2000/svg">
<path d="M28.132 41.4607C46.0324 29.5699 85.3621 11.4536 120.562 22.3607C166.148 36.486 188.577 123.504 188.577 123.504C188.577 123.504 317.117 277.648 340.302 269.359C363.488 261.07 375.101 262.867 391.749 284.986C408.398 307.105 701.304 233.329 699.996 288.459C698.688 343.588 282.751 373.975 282.751 368.332C282.751 362.688 290.163 355.743 282.751 355.743C275.34 355.743 94.8709 357.758 69.1153 156.061L58.2155 153.022C22.595 83.9498 10.2316 53.3516 28.132 41.4607Z" stroke="#FAFAFA" stroke-width="25.05"/>
<path d="M167 323C213.5 353 275.592 356 283 356C290.408 356 283 362.335 283 368C283 373.665 410 361 410 361" stroke="#FF0D0D" stroke-width="26"/>
<path d="M384.3 109.1C392.033 109.1 397.533 110.633 400.8 113.7C404.067 116.767 405.233 122.067 404.3 129.6L403.7 134.4C402.833 141.733 399.767 146.833 394.5 149.7C389.233 152.567 382.333 154 373.8 154H342.4L343.8 144H378C382.533 144 385.9 143.233 388.1 141.7C390.3 140.167 391.633 137.933 392.1 135L393 128.1C393.333 125.433 392.7 123.267 391.1 121.6C389.5 119.933 386.3 119.1 381.5 119.1H347.3L352.9 79H411.4L410 89H363L360.2 109.1H384.3ZM451.863 79H462.863L452.363 154H441.363L451.863 79ZM527.067 115.7L521.667 154H484.667C479.467 154 475.401 153.067 472.467 151.2C469.601 149.267 468.167 146.3 468.167 142.3C468.167 138.567 469.467 135.267 472.067 132.4C474.734 129.533 478.767 126.267 484.167 122.6L512.167 103.5H474.067L475.467 94H507.367C511.501 94 514.934 94.5667 517.667 95.7C520.401 96.8333 522.534 98.4 524.067 100.4C525.601 102.333 526.567 104.633 526.967 107.3C527.434 109.9 527.467 112.7 527.067 115.7ZM485.567 144H512.067L516.667 111.3L486.867 131.7C484.467 133.367 482.667 134.8 481.467 136C480.334 137.2 479.767 138.533 479.767 140C479.767 141.4 480.334 142.433 481.467 143.1C482.601 143.7 483.967 144 485.567 144ZM536.529 169L547.029 94H580.529C588.729 94 594.596 96.3 598.129 100.9C601.662 105.433 602.829 111.767 601.629 119.9L600.429 128.1C599.296 136.433 596.262 142.833 591.329 147.3C586.462 151.767 580.062 154 572.129 154H549.629L547.529 169H536.529ZM578.129 104H556.629L551.029 144H572.529C577.729 144 581.529 142.933 583.929 140.8C586.396 138.667 587.996 134.9 588.729 129.5L590.329 118.4C590.996 113.133 590.429 109.433 588.629 107.3C586.829 105.1 583.329 104 578.129 104ZM643.859 130.1L629.559 127C624.559 125.933 620.659 124.2 617.859 121.8C615.126 119.333 613.759 116.067 613.759 112C613.759 109.533 614.226 107.233 615.159 105.1C616.093 102.9 617.526 101 619.459 99.4C621.459 97.7333 623.959 96.4333 626.959 95.5C630.026 94.5 633.626 94 637.759 94H668.459L667.159 103.5H634.659C631.393 103.5 628.993 104.2 627.459 105.6C625.993 106.933 625.259 108.533 625.259 110.4C625.259 112.067 625.859 113.433 627.059 114.5C628.259 115.567 630.293 116.4 633.159 117L647.259 120C652.726 121.2 656.993 122.933 660.059 125.2C663.126 127.4 664.659 130.7 664.659 135.1C664.659 137.367 664.226 139.633 663.359 141.9C662.559 144.167 661.159 146.2 659.159 148C657.226 149.8 654.593 151.267 651.259 152.4C647.926 153.467 643.759 154 638.759 154H608.859L610.159 144.5H641.659C646.593 144.5 649.793 143.733 651.259 142.2C652.726 140.667 653.459 139.067 653.459 137.4C653.459 135.467 652.859 134 651.659 133C650.459 131.933 647.859 130.967 643.859 130.1Z" fill="white"/>
</svg>
