<svg width="726" height="377" viewBox="0 0 726 377" fill="none" xmlns="http://www.w3.org/2000/svg">
<path d="M21.132 35.4607C39.0324 23.5699 78.3621 5.45356 113.562 16.3607C159.148 30.486 181.577 117.504 181.577 117.504C181.577 117.504 310.117 271.648 333.302 263.359C356.488 255.07 368.101 256.867 384.749 278.986C401.398 301.105 694.304 227.329 692.996 282.459C691.688 337.588 275.751 367.975 275.751 362.332C275.751 356.688 283.163 349.743 275.751 349.743C268.34 349.743 87.8709 351.758 62.1153 150.061L51.2155 147.022C15.595 77.9498 3.23163 47.3516 21.132 35.4607Z" stroke="#FAFAFA" stroke-width="25.05"/>
<path d="M53.688 147.648L62.5 150C88.2439 352.488 268.592 350 276 350C283.408 350 276 356.335 276 362C276 367.665 403 355 403 355" stroke="#FF4E11" stroke-width="26"/>
<path d="M332.5 148L333.9 138H356.6L363.9 86.3C364.033 85.2333 363.9 84.4333 363.5 83.9C363.1 83.3 362.367 83 361.3 83H343.9L345.3 73H364.5C369.3 73 372.467 74.2 374 76.6C375.6 79 376.067 82.2 375.4 86.2L368.1 138H388.1L386.7 148H332.5ZM459.395 138L457.995 148H396.295L397.995 135.7C398.595 131.5 400.129 127.8 402.595 124.6C405.062 121.4 408.795 118.467 413.795 115.8L445.795 99C449.129 97.2667 451.495 95.7 452.895 94.3C454.362 92.9 455.095 91.0667 455.095 88.8C455.095 87.1333 454.462 85.7667 453.195 84.7C451.929 83.5667 449.429 83 445.695 83H406.295L407.695 73H447.895C454.695 73 459.595 74.3 462.595 76.9C465.662 79.4333 467.195 82.7333 467.195 86.8C467.195 92.0667 465.729 96.2333 462.795 99.3C459.929 102.367 455.995 105.167 450.995 107.7L417.995 124.5C415.729 125.633 413.862 126.967 412.395 128.5C410.929 130.033 410.062 131.733 409.795 133.6L409.195 138H459.395ZM508.926 73H519.926L509.426 148H498.426L508.926 73ZM584.13 109.7L578.73 148H541.73C536.53 148 532.463 147.067 529.53 145.2C526.663 143.267 525.23 140.3 525.23 136.3C525.23 132.567 526.53 129.267 529.13 126.4C531.796 123.533 535.83 120.267 541.23 116.6L569.23 97.5H531.13L532.53 88H564.43C568.563 88 571.996 88.5667 574.73 89.7C577.463 90.8333 579.596 92.4 581.13 94.4C582.663 96.3333 583.63 98.6333 584.03 101.3C584.496 103.9 584.53 106.7 584.13 109.7ZM542.63 138H569.13L573.73 105.3L543.93 125.7C541.53 127.367 539.73 128.8 538.53 130C537.396 131.2 536.83 132.533 536.83 134C536.83 135.4 537.396 136.433 538.53 137.1C539.663 137.7 541.03 138 542.63 138ZM593.591 163L604.091 88H637.591C645.791 88 651.658 90.3 655.191 94.9C658.725 99.4333 659.891 105.767 658.691 113.9L657.491 122.1C656.358 130.433 653.325 136.833 648.391 141.3C643.525 145.767 637.125 148 629.191 148H606.691L604.591 163H593.591ZM635.191 98H613.691L608.091 138H629.591C634.791 138 638.591 136.933 640.991 134.8C643.458 132.667 645.058 128.9 645.791 123.5L647.391 112.4C648.058 107.133 647.491 103.433 645.691 101.3C643.891 99.1 640.391 98 635.191 98ZM700.922 124.1L686.622 121C681.622 119.933 677.722 118.2 674.922 115.8C672.189 113.333 670.822 110.067 670.822 106C670.822 103.533 671.289 101.233 672.222 99.1C673.155 96.9 674.589 95 676.522 93.4C678.522 91.7333 681.022 90.4333 684.022 89.5C687.089 88.5 690.689 88 694.822 88H725.522L724.222 97.5H691.722C688.455 97.5 686.055 98.2 684.522 99.6C683.055 100.933 682.322 102.533 682.322 104.4C682.322 106.067 682.922 107.433 684.122 108.5C685.322 109.567 687.355 110.4 690.222 111L704.322 114C709.789 115.2 714.055 116.933 717.122 119.2C720.189 121.4 721.722 124.7 721.722 129.1C721.722 131.367 721.289 133.633 720.422 135.9C719.622 138.167 718.222 140.2 716.222 142C714.289 143.8 711.655 145.267 708.322 146.4C704.989 147.467 700.822 148 695.822 148H665.922L667.222 138.5H698.722C703.655 138.5 706.855 137.733 708.322 136.2C709.789 134.667 710.522 133.067 710.522 131.4C710.522 129.467 709.922 128 708.722 127C707.522 125.933 704.922 124.967 700.922 124.1Z" fill="white"/>
</svg>
