<svg width="706" height="376" viewBox="0 0 706 376" fill="none" xmlns="http://www.w3.org/2000/svg">
<path d="M21.132 35.4607C39.0324 23.5699 78.3621 5.45356 113.562 16.3607C159.148 30.486 181.577 117.504 181.577 117.504C181.577 117.504 310.117 271.648 333.302 263.359C356.488 255.07 368.101 256.867 384.749 278.986C401.398 301.105 694.304 227.329 692.996 282.459C691.688 337.588 275.751 367.975 275.751 362.332C275.751 356.688 283.163 349.743 275.751 349.743C268.34 349.743 87.8709 351.758 62.1153 150.061L51.2155 147.022C15.595 77.9498 3.23163 47.3516 21.132 35.4607Z" stroke="#FAFAFA" stroke-width="25.05"/>
</svg>
