<svg width="725" height="378" viewBox="0 0 725 378" fill="none" xmlns="http://www.w3.org/2000/svg">
<path d="M21.1468 35.6001C39.0797 23.6354 78.4808 5.40675 113.745 16.3816C159.414 30.5945 181.883 118.152 181.883 118.152C181.883 118.152 310.657 273.252 333.884 264.912C357.111 256.571 368.746 258.38 385.425 280.636C402.103 302.892 695.541 228.659 694.231 284.13C692.921 339.602 276.229 370.177 276.229 364.498C276.229 358.82 283.654 351.832 276.229 351.832C268.803 351.832 88.007 353.859 62.2045 150.911L51.2849 147.854C15.5997 78.3527 3.21388 47.5647 21.1468 35.6001Z" stroke="#69B34C" stroke-width="25.05"/>
<path d="M360.48 118.87C368.213 118.87 373.713 120.403 376.98 123.47C380.247 126.537 381.413 131.837 380.48 139.37L379.88 144.17C379.013 151.503 375.947 156.603 370.68 159.47C365.413 162.337 358.513 163.77 349.98 163.77H318.58L319.98 153.77H354.18C358.713 153.77 362.08 153.003 364.28 151.47C366.48 149.937 367.813 147.703 368.28 144.77L369.18 137.87C369.513 135.203 368.88 133.037 367.28 131.37C365.68 129.703 362.48 128.87 357.68 128.87H323.48L329.08 88.77H387.58L386.18 98.77H339.18L336.38 118.87H360.48ZM461.567 132.27C460.9 137.203 459.633 141.703 457.767 145.77C455.9 149.77 453.433 153.203 450.367 156.07C447.3 158.87 443.567 161.07 439.167 162.67C434.767 164.203 429.7 164.97 423.967 164.97H420.967C415.033 164.97 410.067 164.137 406.067 162.47C402.133 160.803 399.033 158.537 396.767 155.67C394.567 152.803 393.133 149.37 392.467 145.37C391.867 141.303 391.9 136.937 392.567 132.27L394.267 120.27C394.933 115.27 396.2 110.77 398.067 106.77C399.933 102.703 402.4 99.2367 405.467 96.37C408.533 93.5034 412.267 91.3034 416.667 89.77C421.067 88.2367 426.133 87.47 431.867 87.47H434.867C440.733 87.47 445.633 88.27 449.567 89.87C453.567 91.47 456.667 93.7033 458.867 96.57C461.133 99.4367 462.6 102.903 463.267 106.97C463.933 111.037 463.933 115.47 463.267 120.27L461.567 132.27ZM404.667 134.97C403.733 141.703 404.467 146.737 406.867 150.07C409.333 153.337 414 154.97 420.867 154.97H426.867C433.733 154.97 438.867 153.303 442.267 149.97C445.667 146.637 447.8 141.637 448.667 134.97L451.167 117.47C452.167 110.87 451.433 105.903 448.967 102.57C446.567 99.17 441.9 97.47 434.967 97.47H428.967C422.167 97.47 417.067 99.1367 413.667 102.47C410.267 105.737 408.1 110.737 407.167 117.47L404.667 134.97ZM508.024 88.77H519.024L508.524 163.77H497.524L508.024 88.77ZM583.228 125.47L577.828 163.77H540.828C535.628 163.77 531.561 162.837 528.628 160.97C525.761 159.037 524.328 156.07 524.328 152.07C524.328 148.337 525.628 145.037 528.228 142.17C530.894 139.303 534.928 136.037 540.328 132.37L568.328 113.27H530.228L531.628 103.77H563.528C567.661 103.77 571.094 104.337 573.828 105.47C576.561 106.603 578.694 108.17 580.228 110.17C581.761 112.103 582.728 114.403 583.128 117.07C583.594 119.67 583.628 122.47 583.228 125.47ZM541.728 153.77H568.228L572.828 121.07L543.028 141.47C540.628 143.137 538.828 144.57 537.628 145.77C536.494 146.97 535.928 148.303 535.928 149.77C535.928 151.17 536.494 152.203 537.628 152.87C538.761 153.47 540.128 153.77 541.728 153.77ZM592.689 178.77L603.189 103.77H636.689C644.889 103.77 650.756 106.07 654.289 110.67C657.823 115.203 658.989 121.537 657.789 129.67L656.589 137.87C655.456 146.203 652.423 152.603 647.489 157.07C642.623 161.537 636.223 163.77 628.289 163.77H605.789L603.689 178.77H592.689ZM634.289 113.77H612.789L607.189 153.77H628.689C633.889 153.77 637.689 152.703 640.089 150.57C642.556 148.437 644.156 144.67 644.889 139.27L646.489 128.17C647.156 122.903 646.589 119.203 644.789 117.07C642.989 114.87 639.489 113.77 634.289 113.77ZM700.02 139.87L685.72 136.77C680.72 135.703 676.82 133.97 674.02 131.57C671.286 129.103 669.92 125.837 669.92 121.77C669.92 119.303 670.386 117.003 671.32 114.87C672.253 112.67 673.686 110.77 675.62 109.17C677.62 107.503 680.12 106.203 683.12 105.27C686.186 104.27 689.786 103.77 693.92 103.77H724.62L723.32 113.27H690.82C687.553 113.27 685.153 113.97 683.62 115.37C682.153 116.703 681.42 118.303 681.42 120.17C681.42 121.837 682.02 123.203 683.22 124.27C684.42 125.337 686.453 126.17 689.32 126.77L703.42 129.77C708.886 130.97 713.153 132.703 716.22 134.97C719.286 137.17 720.82 140.47 720.82 144.87C720.82 147.137 720.386 149.403 719.52 151.67C718.72 153.937 717.32 155.97 715.32 157.77C713.386 159.57 710.753 161.037 707.42 162.17C704.086 163.237 699.92 163.77 694.92 163.77H665.02L666.32 154.27H697.82C702.753 154.27 705.953 153.503 707.42 151.97C708.886 150.437 709.62 148.837 709.62 147.17C709.62 145.237 709.02 143.77 707.82 142.77C706.62 141.703 704.02 140.737 700.02 139.87Z" fill="white"/>
</svg>
