<svg width="737" height="378" viewBox="0 0 737 378" fill="none" xmlns="http://www.w3.org/2000/svg">
<path d="M21.1323 36.4609C39.0326 24.57 78.3623 6.45368 113.563 17.3608C159.149 31.4861 181.577 118.504 181.577 118.504C181.577 118.504 310.117 272.648 333.303 264.359C356.488 256.07 368.101 257.867 384.75 279.986C401.398 302.105 694.304 228.329 692.996 283.459C691.688 338.589 275.752 368.975 275.752 363.332C275.752 357.689 283.163 350.743 275.752 350.743C268.34 350.743 87.8712 352.758 62.1155 151.061L51.2157 148.022C15.5953 78.9499 3.23187 48.3517 21.1323 36.4609Z" stroke="#FAFAFA" stroke-width="25.05"/>
<path d="M403 356C403 356 276 368.665 276 363C276 357.335 283.409 351 276 351C268.592 351 88.2441 353.488 62.5001 151L51.0001 147.5C26.9376 104.169 12.9999 72.0001 13 50.5001C13.0001 29.0001 75 14.5001 75 14.5001C127.577 9.73367 150.35 31.7665 181.5 116C242.929 191.882 273.5 228 330 266.5C341.916 259.591 363 254 378.5 273C378.5 273 381.227 283.687 396 284C410.773 284.313 589.5 265.5 589.5 265.5" stroke="#ACB334" stroke-width="26"/>
<path d="M351.2 105.5L382.2 84.0001H341.1L342.5 74.0001H403.1L402 82.0001L367 106.4H375.8C384.067 106.4 389.767 107.933 392.9 111C396.1 114.067 397.267 118.533 396.4 124.4L395.4 131.3C394.4 138.233 391.433 142.933 386.5 145.4C381.633 147.8 374.833 149 366.1 149H333L334.4 139H370.8C375.467 139 378.767 138.3 380.7 136.9C382.7 135.5 383.9 133.433 384.3 130.7L385 125.4C385.4 122.533 384.867 120.267 383.4 118.6C382 116.867 378.8 116 373.8 116H353C351 116 349.533 115.567 348.6 114.7C347.667 113.767 347.2 112.667 347.2 111.4C347.2 110.333 347.533 109.333 348.2 108.4C348.867 107.4 349.867 106.433 351.2 105.5ZM414.598 92.4001C414.998 89.2668 415.798 86.5335 416.998 84.2001C418.198 81.8668 419.965 79.9668 422.298 78.5001C424.698 76.9668 427.765 75.8335 431.498 75.1001C435.298 74.3668 439.932 74.0001 445.398 74.0001H448.898C454.632 74.0001 459.298 74.4001 462.898 75.2001C466.498 76.0001 469.232 77.2001 471.098 78.8001C473.032 80.3335 474.232 82.2668 474.698 84.6001C475.165 86.8668 475.165 89.4668 474.698 92.4001L474.298 95.1001C473.698 99.1001 472.298 102.467 470.098 105.2C467.965 107.867 464.598 109.833 459.998 111.1C465.132 112.367 468.532 114.367 470.198 117.1C471.932 119.833 472.532 122.9 471.998 126.3L471.398 130.2C470.598 136.2 467.832 140.833 463.098 144.1C458.432 147.367 450.865 149 440.398 149H432.898C427.365 149 422.832 148.533 419.298 147.6C415.765 146.667 413.032 145.4 411.098 143.8C409.165 142.133 407.898 140.133 407.298 137.8C406.765 135.467 406.698 132.933 407.098 130.2L407.598 126.6C408.198 122.667 409.798 119.4 412.398 116.8C414.998 114.2 418.832 112.3 423.898 111.1C419.432 109.7 416.565 107.633 415.298 104.9C414.032 102.167 413.665 98.9001 414.198 95.1001L414.598 92.4001ZM462.998 93.4001C463.398 90.4001 462.665 88.1001 460.798 86.5001C458.932 84.8335 455.632 84.0001 450.898 84.0001H440.598C436.198 84.0001 432.765 84.7668 430.298 86.3001C427.832 87.7668 426.365 90.1335 425.898 93.4001L425.398 97.1001C424.998 100.1 425.665 102.367 427.398 103.9C429.132 105.433 432.465 106.2 437.398 106.2H447.898C452.565 106.2 456.032 105.5 458.298 104.1C460.632 102.7 462.032 100.367 462.498 97.1001L462.998 93.4001ZM460.598 125.6C460.932 122.933 460.132 120.633 458.198 118.7C456.332 116.767 452.465 115.8 446.598 115.8H436.098C430.098 115.8 425.898 116.7 423.498 118.5C421.098 120.3 419.698 122.667 419.298 125.6L418.798 129.3C418.598 130.7 418.598 132 418.798 133.2C418.998 134.4 419.598 135.433 420.598 136.3C421.665 137.167 423.198 137.833 425.198 138.3C427.198 138.767 429.898 139 433.298 139H442.798C448.798 139 453.065 138.1 455.598 136.3C458.198 134.5 459.698 132.167 460.098 129.3L460.598 125.6ZM519.668 74.0001H530.668L520.168 149H509.168L519.668 74.0001ZM594.872 110.7L589.472 149H552.472C547.272 149 543.205 148.067 540.272 146.2C537.405 144.267 535.972 141.3 535.972 137.3C535.972 133.567 537.272 130.267 539.872 127.4C542.539 124.533 546.572 121.267 551.972 117.6L579.972 98.5001H541.872L543.272 89.0001H575.172C579.305 89.0001 582.739 89.5668 585.472 90.7001C588.205 91.8335 590.339 93.4001 591.872 95.4001C593.405 97.3335 594.372 99.6335 594.772 102.3C595.239 104.9 595.272 107.7 594.872 110.7ZM553.372 139H579.872L584.472 106.3L554.672 126.7C552.272 128.367 550.472 129.8 549.272 131C548.139 132.2 547.572 133.533 547.572 135C547.572 136.4 548.139 137.433 549.272 138.1C550.405 138.7 551.772 139 553.372 139ZM604.334 164L614.834 89.0001H648.334C656.534 89.0001 662.4 91.3001 665.934 95.9001C669.467 100.433 670.634 106.767 669.434 114.9L668.234 123.1C667.1 131.433 664.067 137.833 659.134 142.3C654.267 146.767 647.867 149 639.934 149H617.434L615.334 164H604.334ZM645.934 99.0001H624.434L618.834 139H640.334C645.534 139 649.334 137.933 651.734 135.8C654.2 133.667 655.8 129.9 656.534 124.5L658.134 113.4C658.8 108.133 658.234 104.433 656.434 102.3C654.634 100.1 651.134 99.0001 645.934 99.0001ZM711.664 125.1L697.364 122C692.364 120.933 688.464 119.2 685.664 116.8C682.931 114.333 681.564 111.067 681.564 107C681.564 104.533 682.031 102.233 682.964 100.1C683.897 97.9001 685.331 96.0001 687.264 94.4001C689.264 92.7335 691.764 91.4335 694.764 90.5001C697.831 89.5001 701.431 89.0001 705.564 89.0001H736.264L734.964 98.5001H702.464C699.197 98.5001 696.797 99.2001 695.264 100.6C693.797 101.933 693.064 103.533 693.064 105.4C693.064 107.067 693.664 108.433 694.864 109.5C696.064 110.567 698.097 111.4 700.964 112L715.064 115C720.531 116.2 724.797 117.933 727.864 120.2C730.931 122.4 732.464 125.7 732.464 130.1C732.464 132.367 732.031 134.633 731.164 136.9C730.364 139.167 728.964 141.2 726.964 143C725.031 144.8 722.397 146.267 719.064 147.4C715.731 148.467 711.564 149 706.564 149H676.664L677.964 139.5H709.464C714.397 139.5 717.597 138.733 719.064 137.2C720.531 135.667 721.264 134.067 721.264 132.4C721.264 130.467 720.664 129 719.464 128C718.264 126.933 715.664 125.967 711.664 125.1Z" fill="white"/>
</svg>
